Coordinates
version=1
nRows=49
nColumns=12
inDegrees=yes

Units are S.I. units (second, meters, Newtons, ...)
Angles are in degrees

endheader
time	SC_y	SC_z	SC_x	AC_y	AC_z	AC_x	GH_y	GH_z	GH_yy	EL_x	PS_y
       0.0              -35.09           22.7          80.95          69.53         -2.842         -10.94          104.7          5.311          33.99          34.61          22.76
  0.002991              -35.09           22.7          80.95          69.53         -2.843         -10.94          104.7          5.311          33.96          34.61          22.77
  0.005982              -35.09          22.69          80.94          69.52         -2.844         -10.94          104.7          5.311          33.94          34.61          22.77
  0.008973               -35.1          22.69          80.94          69.52         -2.845         -10.93          104.7          5.311          33.92          34.62          22.78
   0.01196               -35.1          22.69          80.94          69.52         -2.846         -10.93          104.7          5.311          33.89          34.62          22.79
   0.01495               -35.1          22.68          80.93          69.52         -2.847         -10.92          104.7          5.311          33.86          34.62           22.8
   0.01795               -35.1          22.68          80.93          69.51         -2.848         -10.92          104.7          5.311          33.83          34.62           22.8
   0.02094               -35.1          22.68          80.93          69.51         -2.849         -10.92          104.7          5.311           33.8          34.62          22.81
   0.02393               -35.1          22.67          80.92          69.51          -2.85         -10.91          104.8          5.311          33.76          34.62          22.82
   0.02692              -35.11          22.67          80.92          69.51         -2.852         -10.91          104.8          5.311          33.72          34.63          22.83
   0.02991              -35.11          22.67          80.91           69.5         -2.853          -10.9          104.8          5.311          33.68          34.63          22.84
    0.0329              -35.11          22.66          80.91           69.5         -2.855         -10.89          104.8          5.311          33.64          34.63          22.86
   0.03589              -35.11          22.66           80.9          69.49         -2.856         -10.89          104.8          5.311          33.59          34.63          22.87
   0.03888              -35.11          22.65           80.9          69.49         -2.858         -10.88          104.8          5.311          33.54          34.63          22.88
   0.04187              -35.12          22.65          80.89          69.48          -2.86         -10.87          104.8          5.311          33.49          34.64           22.9
   0.04486              -35.12          22.64          80.88          69.48         -2.862         -10.87          104.8          5.311          33.43          34.64          22.92
   0.04785              -35.12          22.63          80.88          69.47         -2.865         -10.86          104.8          5.311          33.36          34.64          22.93
   0.05084              -35.13          22.63          80.87          69.47         -2.867         -10.85          104.8           5.31          33.29          34.65          22.95
   0.05384              -35.13          22.62          80.86          69.46          -2.87         -10.84          104.9           5.31          33.21          34.65          22.97
   0.05683              -35.13          22.61          80.85          69.45         -2.873         -10.83          104.9           5.31          33.13          34.66           23.0
   0.05982              -35.14           22.6          80.84          69.45         -2.876         -10.81          104.9           5.31          33.04          34.66          23.02
   0.06281              -35.14          22.59          80.83          69.44          -2.88          -10.8          104.9           5.31          32.93          34.67          23.05
    0.0658              -35.15          22.58          80.81          69.43         -2.884         -10.78          104.9           5.31          32.82          34.67          23.08
   0.06879              -35.16          22.57           80.8          69.42         -2.889         -10.77          105.0           5.31           32.7          34.68          23.12
   0.07178              -35.16          22.55          80.78           69.4         -2.894         -10.75          105.0          5.309          32.56          34.69          23.16
   0.07477              -35.17          22.54          80.77          69.39         -2.899         -10.73          105.0          5.309           32.4           34.7           23.2
   0.07776              -35.18          22.52          80.75          69.38         -2.905          -10.7          105.0          5.309          32.23           34.7          23.25
   0.08075              -35.19           22.5          80.72          69.36         -2.912         -10.68          105.1          5.309          32.03          34.71           23.3
   0.08374               -35.2          22.48           80.7          69.34          -2.92         -10.65          105.1          5.308          31.81          34.73          23.36
   0.08673              -35.21          22.45          80.67          69.32         -2.929         -10.61          105.2          5.308          31.56          34.74          23.43
   0.08973              -35.23          22.42          80.64          69.29          -2.94         -10.57          105.2          5.308          31.28          34.75          23.51
   0.09272              -35.24          22.39           80.6          69.26         -2.952         -10.53          105.3          5.307          30.95          34.77           23.6
   0.09571              -35.26          22.35          80.56          69.23         -2.965         -10.48          105.4          5.307          30.57          34.79          23.71
    0.0987              -35.28          22.31          80.51          69.19         -2.981         -10.42          105.4          5.306          30.13          34.82          23.83
    0.1017              -35.31          22.25          80.45          69.15           -3.0         -10.35          105.5          5.305          29.61          34.84          23.97
    0.1047              -35.34          22.19          80.38           69.1         -3.022         -10.27          105.6          5.305          29.01          34.87          24.14
    0.1077              -35.38          22.12          80.29          69.03         -3.048         -10.17          105.8          5.304          28.28          34.91          24.34
    0.1107              -35.42          22.03           80.2          68.96         -3.079         -10.05          105.9          5.302          27.42          34.96          24.58
    0.1137              -35.47          21.92          80.08          68.87         -3.116         -9.909          106.1          5.301          26.37          35.01          24.87
    0.1166              -35.54          21.79          79.93          68.76         -3.163         -9.736          106.4          5.299          25.09          35.08          25.23
    0.1196              -35.62          21.63          79.75          68.62         -3.219         -9.522          106.7          5.297          23.52          35.17          25.67
    0.1226              -35.71          21.43          79.52          68.45          -3.29         -9.255          107.0          5.294          21.55          35.27          26.21
    0.1256              -35.84          21.18          79.24          68.23          -3.38         -8.919          107.5          5.291          19.07           35.4           26.9
    0.1286               -36.0          20.86          78.88          67.96         -3.493         -8.492          108.1          5.287          15.92          35.57          27.78
    0.1316               -36.2          20.45          78.41          67.61         -3.639         -7.945          108.9          5.281          11.88          35.78           28.9
    0.1346              -36.46          19.93          77.82          67.16         -3.825         -7.244          109.8          5.274          6.707          36.06          30.34
    0.1376              -36.79          19.25          77.06          66.58         -4.063         -6.347          111.1          5.265        0.09471          36.41          32.17
    0.1406               -37.2          18.41          76.11          65.86         -4.363          -5.22          112.6          5.253         -8.219          36.85          34.48
    0.1436              -37.71          17.38          74.95          64.98         -4.728         -3.847          114.5          5.239         -18.35          37.38          37.29
